<svg width="120" height="120" viewBox="0 0 120 120" fill="none" xmlns="http://www.w3.org/2000/svg">
<g clip-path="url(#clip0_4714_16520)">
<path d="M74.6426 119.516H102.511V31.6591M74.6426 119.516H44.4123M74.6426 119.516V31.6591M44.4123 119.516H17.0161V38.7443H38.2718M44.4123 119.516V38.7443H38.2718M38.2718 38.7443V7.5693H47.2464M82.2002 24.5738H102.511V31.6591M82.2002 24.5738H74.6426V31.6591M82.2002 24.5738V7.5693H70.3915M47.2464 7.5693V0.0117188H70.3915V7.5693M47.2464 7.5693H70.3915M74.6426 31.6591H102.511" stroke="#BC9C65" stroke-width="2"/>
<circle cx="112.431" cy="108.18" r="5.14053" stroke="#BC9C65" stroke-width="2"/>
<circle cx="112.431" cy="98.7336" r="3.25114" stroke="#BC9C65" stroke-width="2"/>
<path d="M112.431 119.516L112.431 113.848" stroke="#BC9C65" stroke-width="2"/>
<circle cx="7.56924" cy="108.18" r="5.14053" stroke="#BC9C65" stroke-width="2"/>
<circle cx="7.5695" cy="98.7336" r="3.25114" stroke="#BC9C65" stroke-width="2"/>
<path d="M7.56934 119.516L7.56934 113.848" stroke="#BC9C65" stroke-width="2"/>
<rect x="23.1567" y="95.4258" width="2.83409" height="6.61288" fill="#BC9C65"/>
<rect x="23.1567" y="85.0352" width="2.83409" height="6.61288" fill="#BC9C65"/>
<rect x="29.7695" y="95.4258" width="2.83409" height="6.61288" fill="#BC9C65"/>
<rect x="29.7695" y="85.0352" width="2.83409" height="6.61288" fill="#BC9C65"/>
<rect x="36.3823" y="95.4258" width="2.83409" height="6.61288" fill="#BC9C65"/>
<rect x="36.3823" y="85.0352" width="2.83409" height="6.61288" fill="#BC9C65"/>
<rect x="69.4468" y="104.873" width="2.83409" height="13.2258" transform="rotate(90 69.4468 104.873)" fill="#BC9C65"/>
<rect x="69.4468" y="97.3164" width="2.83409" height="13.2258" transform="rotate(90 69.4468 97.3164)" fill="#BC9C65"/>
<rect x="69.4468" y="89.7578" width="2.83409" height="13.2258" transform="rotate(90 69.4468 89.7578)" fill="#BC9C65"/>
<rect x="53.3872" y="104.873" width="2.83409" height="4.72349" transform="rotate(90 53.3872 104.873)" fill="#BC9C65"/>
<rect x="53.3872" y="97.3164" width="2.83409" height="4.72349" transform="rotate(90 53.3872 97.3164)" fill="#BC9C65"/>
<rect x="53.3872" y="89.7578" width="2.83409" height="4.72349" transform="rotate(90 53.3872 89.7578)" fill="#BC9C65"/>
<rect x="69.4468" y="81.2559" width="2.83409" height="13.2258" transform="rotate(90 69.4468 81.2559)" fill="#BC9C65"/>
<rect x="69.4468" y="73.6973" width="2.83409" height="13.2258" transform="rotate(90 69.4468 73.6973)" fill="#BC9C65"/>
<rect x="69.4468" y="66.1406" width="2.83409" height="13.2258" transform="rotate(90 69.4468 66.1406)" fill="#BC9C65"/>
<rect x="53.3872" y="81.2559" width="2.83409" height="4.72349" transform="rotate(90 53.3872 81.2559)" fill="#BC9C65"/>
<rect x="53.3872" y="73.6973" width="2.83409" height="4.72349" transform="rotate(90 53.3872 73.6973)" fill="#BC9C65"/>
<rect x="53.3872" y="66.1406" width="2.83409" height="4.72349" transform="rotate(90 53.3872 66.1406)" fill="#BC9C65"/>
<rect x="69.4468" y="57.6387" width="2.83409" height="13.2258" transform="rotate(90 69.4468 57.6387)" fill="#BC9C65"/>
<rect x="69.4468" y="50.0801" width="2.83409" height="13.2258" transform="rotate(90 69.4468 50.0801)" fill="#BC9C65"/>
<rect x="69.4468" y="42.5234" width="2.83409" height="13.2258" transform="rotate(90 69.4468 42.5234)" fill="#BC9C65"/>
<rect x="53.3872" y="57.6387" width="2.83409" height="4.72349" transform="rotate(90 53.3872 57.6387)" fill="#BC9C65"/>
<rect x="53.3872" y="50.0801" width="2.83409" height="4.72349" transform="rotate(90 53.3872 50.0801)" fill="#BC9C65"/>
<rect x="53.3872" y="42.5234" width="2.83409" height="4.72349" transform="rotate(90 53.3872 42.5234)" fill="#BC9C65"/>
<rect x="69.4468" y="34.0215" width="2.83409" height="13.2258" transform="rotate(90 69.4468 34.0215)" fill="#BC9C65"/>
<rect x="69.4468" y="26.4629" width="2.83409" height="13.2258" transform="rotate(90 69.4468 26.4629)" fill="#BC9C65"/>
<rect x="69.4468" y="18.9062" width="2.83409" height="13.2258" transform="rotate(90 69.4468 18.9062)" fill="#BC9C65"/>
<rect x="53.3872" y="34.0215" width="2.83409" height="4.72349" transform="rotate(90 53.3872 34.0215)" fill="#BC9C65"/>
<rect x="53.3872" y="26.4629" width="2.83409" height="4.72349" transform="rotate(90 53.3872 26.4629)" fill="#BC9C65"/>
<rect x="53.3872" y="18.9062" width="2.83409" height="4.72349" transform="rotate(90 53.3872 18.9062)" fill="#BC9C65"/>
<rect x="23.1567" y="68.9746" width="2.83409" height="6.61288" fill="#BC9C65"/>
<rect x="23.1567" y="58.582" width="2.83409" height="6.61288" fill="#BC9C65"/>
<rect x="23.1567" y="48.1914" width="2.83409" height="6.61288" fill="#BC9C65"/>
<rect x="29.7695" y="68.9746" width="2.83409" height="6.61288" fill="#BC9C65"/>
<rect x="29.7695" y="58.582" width="2.83409" height="6.61288" fill="#BC9C65"/>
<rect x="29.7695" y="48.1914" width="2.83409" height="6.61288" fill="#BC9C65"/>
<rect x="36.3823" y="68.9746" width="2.83409" height="6.61288" fill="#BC9C65"/>
<rect x="36.3823" y="58.582" width="2.83409" height="6.61288" fill="#BC9C65"/>
<rect x="36.3823" y="48.1914" width="2.83409" height="6.61288" fill="#BC9C65"/>
<rect x="80.7832" y="92.5918" width="2.83409" height="6.61288" fill="#BC9C65"/>
<rect x="80.7832" y="82.2012" width="2.83409" height="6.61288" fill="#BC9C65"/>
<rect x="80.7832" y="71.8086" width="2.83409" height="6.61288" fill="#BC9C65"/>
<rect x="80.7832" y="61.418" width="2.83409" height="6.61288" fill="#BC9C65"/>
<rect x="80.7832" y="51.0254" width="2.83409" height="6.61288" fill="#BC9C65"/>
<rect x="80.7832" y="40.6328" width="2.83409" height="6.61288" fill="#BC9C65"/>
<rect x="87.396" y="92.5918" width="2.83409" height="6.61288" fill="#BC9C65"/>
<rect x="87.396" y="82.2012" width="2.83409" height="6.61288" fill="#BC9C65"/>
<rect x="87.396" y="71.8086" width="2.83409" height="6.61288" fill="#BC9C65"/>
<rect x="87.396" y="61.418" width="2.83409" height="6.61288" fill="#BC9C65"/>
<rect x="87.396" y="51.0254" width="2.83409" height="6.61288" fill="#BC9C65"/>
<rect x="87.396" y="40.6328" width="2.83409" height="6.61288" fill="#BC9C65"/>
<rect x="94.0093" y="92.5918" width="2.83409" height="6.61288" fill="#BC9C65"/>
<rect x="94.0093" y="82.2012" width="2.83409" height="6.61288" fill="#BC9C65"/>
<rect x="94.0093" y="71.8086" width="2.83409" height="6.61288" fill="#BC9C65"/>
<rect x="94.0093" y="61.418" width="2.83409" height="6.61288" fill="#BC9C65"/>
<rect x="94.0093" y="51.0254" width="2.83409" height="6.61288" fill="#BC9C65"/>
<rect x="94.0093" y="40.6328" width="2.83409" height="6.61288" fill="#BC9C65"/>
<path d="M25.1016 111.971C25.6689 105.085 35.7598 105.085 36.3271 111.971V118.988H25.1016V111.971Z" stroke="#BC9C65" stroke-width="2"/>
<path d="M82.2559 111.971C82.8232 105.085 92.9141 105.085 93.4814 111.971V118.988H82.2559V111.971Z" stroke="#BC9C65" stroke-width="2"/>
</g>
<defs>
<clipPath id="clip0_4714_16520">
<rect width="120" height="120" fill="white"/>
</clipPath>
</defs>
</svg>
