<svg width="120" height="120" viewBox="0 0 120 120" fill="none" xmlns="http://www.w3.org/2000/svg">
<g clip-path="url(#clip0_4714_17899)">
<path d="M8.65527 64.4473L27.6267 75.4004V53.4941L8.65527 64.4473ZM111.191 64.4473L92.2195 53.4941V75.4004L111.191 64.4473ZM25.7296 64.4473V66.3444H94.1167V64.4473V62.5501H25.7296V64.4473Z" fill="#BC9C65"/>
<rect x="0.5" y="89.4492" width="119" height="26.9769" stroke="#BC9C65" stroke-width="2"/>
<rect x="8.80859" y="89.4492" width="4.13796" height="8.97439" fill="#BC9C65"/>
<rect x="33.3691" y="89.4492" width="4.13796" height="8.97439" fill="#BC9C65"/>
<rect x="57.9307" y="89.4492" width="4.13796" height="8.97439" fill="#BC9C65"/>
<rect x="82.4922" y="89.4492" width="4.13796" height="8.97439" fill="#BC9C65"/>
<rect x="107.052" y="89.4492" width="4.13796" height="8.97439" fill="#BC9C65"/>
<rect x="21.0898" y="89.4492" width="4.13796" height="12.5945" fill="#BC9C65"/>
<rect x="45.6494" y="89.4492" width="4.13796" height="12.5945" fill="#BC9C65"/>
<rect x="70.2109" y="89.4492" width="4.13796" height="12.5945" fill="#BC9C65"/>
<rect x="94.7725" y="89.4492" width="4.13796" height="12.5945" fill="#BC9C65"/>
<rect x="0.5" y="45.3086" width="4.23615" height="36.9758" fill="#BC9C65"/>
<rect x="115.264" y="45.3086" width="4.23615" height="36.9758" fill="#BC9C65"/>
<path d="M36.1146 45.5723V37.1016H20.5554V34.3821L37.0508 13.9188H39.1462V34.3375H43.0695V37.1016H39.1462V45.5723H36.1146ZM23.8099 34.3375H36.3821V18.6445L23.8099 34.3375ZM56.7266 46.0181C54.4678 46.0181 52.4319 45.4682 50.6189 44.3685C48.8356 43.2391 47.4832 41.753 46.5619 39.9103L48.6126 38.3945C49.4151 39.8509 50.5445 41.0249 52.0009 41.9165C53.4573 42.8082 55.0474 43.254 56.7712 43.254C58.2573 43.254 59.5799 42.927 60.7391 42.2732C61.9279 41.6193 62.8641 40.7276 63.5477 39.5982C64.2611 38.4391 64.6177 37.1016 64.6177 35.5858C64.6177 34.1295 64.2759 32.8514 63.5923 31.7517C62.9087 30.6223 62.0022 29.7455 60.8728 29.1214C59.7434 28.4675 58.4654 28.1406 57.0387 28.1406C55.6715 28.1406 54.3638 28.4526 53.1155 29.0768C51.8672 29.7009 50.8566 30.5777 50.0839 31.7071H47.2306L50.7972 13.9188H66.0889V16.7275H53.0709L50.8418 28.096C51.6145 27.2638 52.5656 26.6248 53.695 26.1789C54.8542 25.7034 56.0876 25.4656 57.3954 25.4656C59.3273 25.4656 61.066 25.8966 62.6115 26.7585C64.1868 27.6204 65.4202 28.8093 66.3118 30.3251C67.2332 31.8112 67.6939 33.5499 67.6939 35.5412C67.6939 37.592 67.2035 39.4199 66.2227 41.0249C65.2419 42.6001 63.9193 43.8336 62.2549 44.7252C60.6202 45.5871 58.7774 46.0181 56.7266 46.0181ZM84.7986 46.0181C82.6586 45.9586 80.7713 45.4385 79.1366 44.4577C77.5019 43.4769 76.1347 42.1989 75.035 40.6236C73.9353 39.0187 73.1031 37.2948 72.5384 35.4521C71.9737 33.5796 71.6913 31.7517 71.6913 29.9684C71.6913 28.0663 71.9886 26.1641 72.583 24.2619C73.2071 22.3597 74.0839 20.6359 75.2133 19.0903C76.3725 17.5151 77.7545 16.2668 79.3595 15.3454C80.9645 14.3943 82.7775 13.9188 84.7986 13.9188C86.9682 13.9188 88.8556 14.424 90.4605 15.4346C92.0952 16.4451 93.4624 17.7529 94.5621 19.3578C95.6618 20.9628 96.4791 22.7015 97.0141 24.574C97.5788 26.4464 97.8612 28.2446 97.8612 29.9684C97.8612 31.9003 97.5491 33.8174 96.925 35.7196C96.3305 37.592 95.4686 39.301 94.3392 40.8465C93.2098 42.3921 91.8277 43.6404 90.193 44.5915C88.5881 45.5128 86.7899 45.9884 84.7986 46.0181ZM74.8567 29.9684C74.9161 31.514 75.1539 33.0743 75.57 34.6496C76.0158 36.1951 76.6548 37.6217 77.487 38.9295C78.3193 40.2075 79.3298 41.2478 80.5186 42.0503C81.7372 42.823 83.1639 43.2094 84.7986 43.2094C86.463 43.2094 87.9193 42.7933 89.1676 41.9611C90.4159 41.1289 91.4413 40.0441 92.2438 38.7066C93.076 37.3394 93.7002 35.8979 94.1163 34.3821C94.5324 32.8366 94.7404 31.3653 94.7404 29.9684C94.7404 28.4229 94.5175 26.8774 94.0717 25.3319C93.6259 23.7566 92.972 22.33 92.1101 21.052C91.2481 19.7442 90.2079 18.704 88.9893 17.9312C87.7707 17.1287 86.3738 16.7275 84.7986 16.7275C83.1044 16.7275 81.6332 17.1584 80.3849 18.0204C79.1366 18.8526 78.0963 19.9374 77.2641 21.2749C76.4617 22.6123 75.8524 24.0538 75.4363 25.5994C75.0499 27.1152 74.8567 28.5715 74.8567 29.9684Z" fill="#BC9C65"/>
</g>
<defs>
<clipPath id="clip0_4714_17899">
<rect width="120" height="120" fill="white"/>
</clipPath>
</defs>
</svg>
