<svg width="120" height="120" viewBox="0 0 120 120" fill="none" xmlns="http://www.w3.org/2000/svg">
<g clip-path="url(#clip0_4714_17583)">
<path d="M0.5 118.62L59.6479 107.003M59.6479 107.003H119.5M59.6479 107.003V54.8963M59.6479 43.2779H117.74M59.6479 43.2779V54.8963M59.6479 43.2779L0.5 1.38086M117.74 43.2779V1.38086H0.5M117.74 43.2779V54.8963H59.6479M0.5 1.38086V14.4082L59.6479 54.8963" stroke="#BC9C65" stroke-width="2"/>
<circle cx="41.7985" cy="13.8664" r="3.13199" fill="#BC9C65"/>
<circle cx="51.0827" cy="22.591" r="3.13199" fill="#BC9C65"/>
<circle cx="60.3664" cy="31.3156" r="3.13199" fill="#BC9C65"/>
<circle cx="55.7267" cy="13.8664" r="3.13199" fill="#BC9C65"/>
<circle cx="65.0104" cy="22.591" r="3.13199" fill="#BC9C65"/>
<circle cx="74.2946" cy="31.3156" r="3.13199" fill="#BC9C65"/>
<circle cx="69.6545" cy="13.8664" r="3.13199" fill="#BC9C65"/>
<circle cx="78.9386" cy="22.591" r="3.13199" fill="#BC9C65"/>
<circle cx="88.2223" cy="31.3156" r="3.13199" fill="#BC9C65"/>
<circle cx="83.5827" cy="13.8664" r="3.13199" fill="#BC9C65"/>
<circle cx="92.8669" cy="22.591" r="3.13199" fill="#BC9C65"/>
<circle cx="102.151" cy="31.3156" r="3.13199" fill="#BC9C65"/>
<circle cx="97.5109" cy="13.8664" r="3.13199" fill="#BC9C65"/>
<circle cx="106.795" cy="22.591" r="3.13199" fill="#BC9C65"/>
<path d="M92.338 62.1738C91.9474 61.7832 91.3143 61.7832 90.9238 62.1738L84.5598 68.5377C84.1693 68.9282 84.1693 69.5614 84.5598 69.9519C84.9503 70.3425 85.5835 70.3425 85.974 69.9519L91.6309 64.2951L97.2877 69.9519C97.6782 70.3425 98.3114 70.3425 98.7019 69.9519C99.0925 69.5614 99.0925 68.9282 98.7019 68.5377L92.338 62.1738ZM91.6309 62.8809H90.6309V87.078H91.6309H92.6309V62.8809H91.6309Z" fill="#BC9C65"/>
<path d="M31.5767 62.1738C31.1862 61.7832 30.553 61.7832 30.1625 62.1738L23.7986 68.5377C23.408 68.9282 23.408 69.5614 23.7986 69.9519C24.1891 70.3425 24.8223 70.3425 25.2128 69.9519L30.8696 64.2951L36.5265 69.9519C36.917 70.3425 37.5502 70.3425 37.9407 69.9519C38.3312 69.5614 38.3312 68.9282 37.9407 68.5377L31.5767 62.1738ZM30.8696 62.8809H29.8696V87.078H30.8696H31.8696V62.8809H30.8696Z" fill="#BC9C65"/>
</g>
<defs>
<clipPath id="clip0_4714_17583">
<rect width="120" height="120" fill="white"/>
</clipPath>
</defs>
</svg>
