<svg width="118" height="118" viewBox="0 0 118 118" fill="none" xmlns="http://www.w3.org/2000/svg">
<path d="M88.5 68.8346L98.3333 59.0013M98.3333 59.0013L108.167 49.168M98.3333 59.0013L88.5 49.168M98.3333 59.0013L108.167 68.8346" stroke="#BC9C65" stroke-width="7.375" stroke-linecap="round" stroke-linejoin="round"/>
<path d="M9.83398 68.1307V49.8702C9.83398 47.2622 10.87 44.7611 12.7141 42.917C14.5582 41.0729 17.0594 40.0369 19.6673 40.0369H33.9257C34.887 40.0366 35.8271 39.7546 36.6298 39.2256L66.1298 19.7753C66.871 19.2872 67.7305 19.0088 68.6172 18.9696C69.5038 18.9305 70.3845 19.1321 71.1658 19.553C71.9471 19.9739 72.6 20.5984 73.0551 21.3604C73.5101 22.1223 73.7505 22.9932 73.7506 23.8807V94.1202C73.7505 95.0077 73.5101 95.8786 73.0551 96.6405C72.6 97.4025 71.9471 98.027 71.1658 98.4479C70.3845 98.8688 69.5038 99.0704 68.6172 99.0313C67.7305 98.9921 66.871 98.7137 66.1298 98.2256L36.6298 78.7753C35.8271 78.2463 34.887 77.9643 33.9257 77.964H19.6673C17.0594 77.964 14.5582 76.928 12.7141 75.0839C10.87 73.2398 9.83398 70.7387 9.83398 68.1307Z" stroke="#BC9C65" stroke-width="7.375"/>
</svg>
