<svg width="120" height="120" viewBox="0 0 120 120" fill="none" xmlns="http://www.w3.org/2000/svg">
<g clip-path="url(#clip0_4714_17346)">
<path d="M0.5 20.8711L5.68213 23.7121C8.21067 25.0983 11.2718 25.0983 13.8003 23.7121L14.9234 23.0964C17.4519 21.7102 20.513 21.7102 23.0415 23.0964L24.1646 23.7121C26.6931 25.0983 29.7542 25.0983 32.2828 23.7121L33.4058 23.0964C35.9343 21.7102 38.9955 21.7102 41.524 23.0964L42.647 23.7121C45.1756 25.0983 48.2367 25.0983 50.7652 23.7121L51.8883 23.0964C54.4168 21.7102 57.4779 21.7102 60.0064 23.0964L61.1295 23.7121C63.658 25.0983 66.7191 25.0983 69.2477 23.7121L74.4298 20.8711" stroke="#BC9C65" stroke-width="3.3775"/>
<path d="M0.5 33.5254L5.68213 36.3664C8.21067 37.7526 11.2718 37.7526 13.8003 36.3664L14.9234 35.7507C17.4519 34.3645 20.513 34.3645 23.0415 35.7507L24.1646 36.3664C26.6931 37.7526 29.7542 37.7526 32.2828 36.3664L33.4058 35.7507C35.9343 34.3645 38.9955 34.3645 41.524 35.7507L42.647 36.3664C45.1756 37.7526 48.2367 37.7526 50.7652 36.3664L51.8883 35.7507C54.4168 34.3645 57.4779 34.3645 60.0064 35.7507L61.1295 36.3664C63.658 37.7526 66.7191 37.7526 69.2477 36.3664L74.4298 33.5254" stroke="#BC9C65" stroke-width="3.3775"/>
<path d="M0.5 46.1797L5.68213 49.0207C8.21067 50.4069 11.2718 50.4069 13.8003 49.0206L14.9234 48.405C17.4519 47.0188 20.513 47.0188 23.0415 48.405L24.1646 49.0207C26.6931 50.4069 29.7542 50.4069 32.2828 49.0206L33.4058 48.405C35.9343 47.0188 38.9955 47.0188 41.524 48.405L42.647 49.0207C45.1756 50.4069 48.2367 50.4069 50.7652 49.0206L51.8883 48.405C54.4168 47.0188 57.4779 47.0188 60.0064 48.405L61.1295 49.0207C63.658 50.4069 66.7191 50.4069 69.2477 49.0206L74.4298 46.1797" stroke="#BC9C65" stroke-width="3.3775"/>
<path d="M0.5 58.834L5.68213 61.6749C8.21067 63.0611 11.2718 63.0611 13.8003 61.6749L14.9234 61.0593C17.4519 59.6731 20.513 59.6731 23.0415 61.0593L24.1646 61.6749C26.6931 63.0611 29.7542 63.0611 32.2828 61.6749L33.4058 61.0593C35.9343 59.6731 38.9955 59.6731 41.524 61.0593L42.647 61.6749C45.1756 63.0611 48.2367 63.0611 50.7652 61.6749L51.8883 61.0593C54.4168 59.6731 57.4779 59.6731 60.0064 61.0593L61.1295 61.6749C63.658 63.0611 66.7191 63.0611 69.2477 61.6749L74.4298 58.834" stroke="#BC9C65" stroke-width="3.3775"/>
<path d="M0.5 71.4863L5.68213 74.3273C8.21067 75.7135 11.2718 75.7135 13.8003 74.3273L14.9234 73.7116C17.4519 72.3254 20.513 72.3254 23.0415 73.7116L24.1646 74.3273C26.6931 75.7135 29.7542 75.7135 32.2828 74.3273L33.4058 73.7116C35.9343 72.3254 38.9955 72.3254 41.524 73.7116L42.647 74.3273C45.1756 75.7135 48.2367 75.7135 50.7652 74.3273L51.8883 73.7116C54.4168 72.3254 57.4779 72.3254 60.0064 73.7116L61.1295 74.3273C63.658 75.7135 66.7191 75.7135 69.2477 74.3273L74.4298 71.4863" stroke="#BC9C65" stroke-width="3.3775"/>
<path d="M0.5 84.1406L5.68213 86.9816C8.21067 88.3678 11.2718 88.3678 13.8003 86.9816L14.9234 86.3659C17.4519 84.9797 20.513 84.9797 23.0415 86.3659L24.1646 86.9816C26.6931 88.3678 29.7542 88.3678 32.2828 86.9816L33.4058 86.3659C35.9343 84.9797 38.9955 84.9797 41.524 86.3659L42.647 86.9816C45.1756 88.3678 48.2367 88.3678 50.7652 86.9816L51.8883 86.3659C54.4168 84.9797 57.4779 84.9797 60.0064 86.3659L61.1295 86.9816C63.658 88.3678 66.7191 88.3678 69.2477 86.9816L74.4298 84.1406" stroke="#BC9C65" stroke-width="3.3775"/>
<path d="M0.5 96.7949L5.68213 99.6359C8.21067 101.022 11.2718 101.022 13.8003 99.6359L14.9234 99.0202C17.4519 97.634 20.513 97.634 23.0415 99.0202L24.1646 99.6359C26.6931 101.022 29.7542 101.022 32.2828 99.6359L33.4058 99.0202C35.9343 97.634 38.9955 97.634 41.524 99.0202L42.647 99.6359C45.1756 101.022 48.2367 101.022 50.7652 99.6359L51.8883 99.0202C54.4168 97.634 57.4779 97.634 60.0064 99.0202L61.1295 99.6359C63.658 101.022 66.7191 101.022 69.2477 99.6359L74.4298 96.7949" stroke="#BC9C65" stroke-width="3.3775"/>
<rect x="46.5863" y="35.9155" width="36.0616" height="76.4461" rx="5.06625" transform="rotate(-30 46.5863 35.9155)" fill="white" stroke="#BC9C65" stroke-width="5.06625"/>
<path d="M65.9497 42.6476L71.3658 39.5207C72.9812 38.5881 75.0469 39.1416 75.9795 40.757L93.9555 71.8922C94.8881 73.5077 94.3346 75.5733 92.7192 76.506L88.2496 79.0865" stroke="#BC9C65" stroke-width="3.3775" stroke-linecap="round"/>
</g>
<defs>
<clipPath id="clip0_4714_17346">
<rect width="120" height="120" fill="white"/>
</clipPath>
</defs>
</svg>
