<svg width="120" height="120" viewBox="0 0 120 120" fill="none" xmlns="http://www.w3.org/2000/svg">
<path d="M9.517 107.547H4.35156V116H59.9995H115.647V107.547H110.482M9.517 107.547H59.9995H110.482M9.517 107.547V12.2174M9.517 12.2174H59.9995H110.482M9.517 12.2174H4.35156V4H59.9995H115.647V12.2174H110.482M37.1933 19.1958H56.1995V46.4457M37.1933 19.1958H18.1871V46.4457M37.1933 19.1958V46.4457M37.1933 100.487H18.1871V73.4665M37.1933 100.487H56.1995V73.4665M37.1933 100.487V73.4665M37.1933 46.4457V73.4665M37.1933 46.4457H56.1995M37.1933 46.4457H18.1871M37.1933 73.4665H18.1871M37.1933 73.4665H56.1995M56.1995 46.4457V73.4665M18.1871 46.4457V73.4665M110.482 107.547V12.2174M82.8057 19.1958H63.7995V46.4457M82.8057 19.1958H101.812V46.4457M82.8057 19.1958V46.4457M82.8057 100.487H101.812V73.4665M82.8057 100.487H63.7995V73.4665M82.8057 100.487V73.4665M82.8057 46.4457V73.4665M82.8057 46.4457H63.7995M82.8057 46.4457H101.812M82.8057 73.4665H101.812M82.8057 73.4665H63.7995M63.7995 46.4457V73.4665M101.812 46.4457V73.4665" stroke="#BC9C65" stroke-width="3.76471" stroke-linecap="round"/>
</svg>
