<svg width="120" height="120" viewBox="0 0 120 120" fill="none" xmlns="http://www.w3.org/2000/svg">
<path d="M36.4499 48.2365V30.5737C36.4442 24.8376 38.5322 19.2967 42.322 14.9909C46.1118 10.685 51.3428 7.91039 57.0332 7.18771C62.7235 6.46503 68.4821 7.84401 73.2278 11.0658C77.9736 14.2876 81.3804 19.1307 82.8088 24.6861M60.0003 77.6744C61.5617 77.6744 63.0593 77.0541 64.1634 75.95C65.2675 74.8459 65.8878 73.3483 65.8878 71.7869C65.8878 70.2254 65.2675 68.7278 64.1634 67.6237C63.0593 66.5196 61.5617 65.8993 60.0003 65.8993C58.4388 65.8993 56.9412 66.5196 55.8371 67.6237C54.733 68.7278 54.1127 70.2254 54.1127 71.7869C54.1127 73.3483 54.733 74.8459 55.8371 75.95C56.9412 77.0541 58.4388 77.6744 60.0003 77.6744ZM60.0003 77.6744V95.3372M28.2073 48.2365H91.7933C96.9743 48.2365 101.213 52.4756 101.213 57.6566V98.8698C101.213 106.641 94.8548 113 87.0832 113H32.9173C25.1457 113 18.7871 106.641 18.7871 98.8698V57.6566C18.7871 52.4756 23.0262 48.2365 28.2073 48.2365Z" stroke="#BC9C65" stroke-width="6" stroke-miterlimit="10" stroke-linecap="round" stroke-linejoin="round"/>
</svg>
