<svg width="559" height="2000" viewBox="0 0 559 2000" fill="none" xmlns="http://www.w3.org/2000/svg">
<path d="M0.323242 1984.27V228.902C0.323242 223.252 4.90348 218.672 10.5535 218.672H75.7713C81.4213 218.672 86.0016 214.091 86.0016 208.441V150.896C86.0016 145.246 90.5818 140.666 96.2318 140.666H203.649C209.299 140.666 213.88 145.246 213.88 150.896V208.441C213.88 214.091 218.46 218.672 224.11 218.672H290.606C296.256 218.672 300.837 223.252 300.837 228.902V473.545L346.873 450.988V127.786C346.873 125.368 347.729 123.029 349.29 121.182L443.967 9.18596C448.038 4.3706 455.454 4.34843 459.553 9.13935L555.412 121.167C556.999 123.022 557.871 125.384 557.869 127.825L556.6 1984.28C556.596 1989.92 552.017 1994.5 546.37 1994.5H451.733H346.873H197.255H149.941H47.6381H10.5535C4.90348 1994.5 0.323242 1989.92 0.323242 1984.27Z" fill="white"/>
<path d="M451.733 1994.5H346.873H197.255M451.733 1994.5H546.37C552.017 1994.5 556.596 1989.92 556.6 1984.28L557.869 127.825C557.871 125.384 556.999 123.022 555.412 121.167L459.553 9.13935C455.454 4.34843 448.038 4.37061 443.967 9.18596L349.29 121.182C347.729 123.029 346.873 125.368 346.873 127.786V450.988M451.733 1994.5L452.999 415.399C453.005 407.827 445.067 402.872 438.267 406.205L346.873 450.988M197.255 1994.5L197.255 530.68C197.255 526.775 199.478 523.211 202.984 521.493L300.837 473.545M197.255 1994.5H149.941M149.941 1994.5L149.941 349.107C149.941 343.457 145.36 338.877 139.71 338.877H57.8684C52.2184 338.877 47.6381 343.457 47.6381 349.107V1994.5M149.941 1994.5H47.6381M47.6381 1994.5H10.5535C4.90348 1994.5 0.323242 1989.92 0.323242 1984.27L0.323242 228.902C0.323242 223.252 4.90348 218.672 10.5535 218.672H75.7713C81.4213 218.672 86.0016 214.091 86.0016 208.441V150.896C86.0016 145.246 90.5818 140.666 96.2318 140.666H203.649C209.299 140.666 213.88 145.246 213.88 150.896V208.441C213.88 214.091 218.46 218.672 224.11 218.672H290.606C296.256 218.672 300.837 223.252 300.837 228.902V473.545M300.837 473.545L346.873 450.988" stroke="#BC9C65" stroke-width="11.0717"/>
</svg>
