<svg width="570" height="8460" viewBox="0 0 570 8460" fill="none" xmlns="http://www.w3.org/2000/svg">
<path d="M457.41 872.67H352.55H202.932M457.41 872.67H552.057C557.7 872.67 562.278 868.101 562.287 862.458L563.542 127.831C563.546 125.386 562.674 123.02 561.085 121.163L465.23 9.13935C461.13 4.34843 453.715 4.37061 449.644 9.18596L354.967 121.182C353.406 123.029 352.55 125.368 352.55 127.786V450.988M457.41 872.67L458.644 415.434C458.664 407.853 450.72 402.884 443.912 406.22L352.55 450.988M202.932 872.67V530.68C202.932 526.775 205.155 523.211 208.661 521.493L306.513 473.545M202.932 872.67H155.617M155.617 872.67V349.107C155.617 343.457 151.037 338.877 145.387 338.877H63.5451C57.8951 338.877 53.3149 343.457 53.3149 349.107V872.67M155.617 872.67H53.3149M53.3149 872.67H16.2302C10.5802 872.67 6 868.09 6 862.44V228.902C6 223.252 10.5802 218.672 16.2302 218.672H81.4481C87.0981 218.672 91.6783 214.091 91.6783 208.441V150.896C91.6783 145.246 96.2586 140.666 101.909 140.666H209.326C214.976 140.666 219.556 145.246 219.556 150.896V208.441C219.556 214.091 224.137 218.672 229.787 218.672H296.283C301.933 218.672 306.513 223.252 306.513 228.902V473.545M306.513 473.545L352.55 450.988" stroke="#BC9C65" stroke-width="11.0717"/>
</svg>
