<svg width="208" height="209" viewBox="0 0 208 209" fill="none" xmlns="http://www.w3.org/2000/svg">
<path d="M2.96826 202.052V83.4374C2.96826 81.2568 4.736 79.489 6.9166 79.489H30.071C32.2516 79.489 34.0193 77.7213 34.0193 75.5407V55.0816C34.0193 52.901 35.7871 51.1333 37.9677 51.1333H76.4159C78.5965 51.1333 80.3642 52.901 80.3642 55.0816V75.5407C80.3642 77.7213 82.132 79.489 84.3126 79.489H107.93C110.111 79.489 111.879 81.2568 111.879 83.4374V172.138L128.563 163.938V46.5322C128.563 45.601 128.892 44.6997 129.492 43.9877L163.565 3.56048C165.136 1.69603 168.005 1.68745 169.588 3.54247L204.083 43.9782C204.695 44.6958 205.03 45.6088 205.028 46.5521L204.58 202.063C204.574 204.239 202.808 206 200.632 206H166.566H128.563H74.3394H57.1918H20.1159H6.9166C4.73599 206 2.96826 204.232 2.96826 202.052Z" fill="white"/>
<path d="M166.566 206H128.563H74.3394M166.566 206H200.632C202.808 206 204.574 204.239 204.58 202.063L205.028 46.5521C205.03 45.6088 204.695 44.6958 204.083 43.9782L169.588 3.54247C168.005 1.68745 165.136 1.69603 163.565 3.56048L129.492 43.9877C128.892 44.6997 128.563 45.601 128.563 46.5322V163.938M166.566 206L166.981 151.426C167.003 148.49 163.926 146.558 161.291 147.853L128.563 163.938M74.3394 206V193.047C74.3394 191.541 75.1953 190.167 76.5462 189.503L111.879 172.138M74.3394 206H57.1918M57.1918 206V127.133C57.1918 124.952 55.424 123.185 53.2434 123.185H24.0642C21.8836 123.185 20.1159 124.952 20.1159 127.133V206M57.1918 206H20.1159M20.1159 206H6.9166C4.73599 206 2.96826 204.232 2.96826 202.052V83.4374C2.96826 81.2568 4.736 79.489 6.9166 79.489H30.071C32.2516 79.489 34.0193 77.7213 34.0193 75.5407V55.0816C34.0193 52.901 35.7871 51.1333 37.9677 51.1333H76.4159C78.5965 51.1333 80.3642 52.901 80.3642 55.0816V75.5407C80.3642 77.7213 82.132 79.489 84.3126 79.489H107.93C110.111 79.489 111.879 81.2568 111.879 83.4374V172.138M111.879 172.138L128.563 163.938" stroke="#BC9C65" stroke-width="4.27312"/>
</svg>
