<svg class="ani-line" width="1514" height="906" viewBox="0 0 1514 906" fill="none" xmlns="http://www.w3.org/2000/svg">
    <path d="M37.0378 548.458C63.0048 503.29 101.964 468.152 148.182 448.216C194.399 428.279 245.433 424.598 293.772 437.713C342.111 450.828 385.201 480.047 416.701 521.07C448.201 562.092 466.446 612.751 468.751 665.59L467.797 665.637C465.502 613.014 447.331 562.563 415.961 521.709C384.59 480.855 341.676 451.755 293.535 438.694C245.394 425.632 194.569 429.299 148.541 449.153C102.513 469.008 63.7138 504.002 37.8531 548.985L37.0378 548.458Z" stroke="#BC9C65" stroke-width="2" class="line line01" />
    <path d="M37.0218 548.272C71.9993 481.533 129.467 427.26 200.67 393.72C271.873 360.18 352.908 349.212 431.432 362.486C509.956 375.76 581.664 412.548 635.633 467.248C689.602 521.948 722.873 591.559 730.378 665.48L729.485 665.558C721.998 591.819 688.808 522.378 634.972 467.812C581.135 413.247 509.603 376.548 431.272 363.307C352.94 350.065 272.103 361.007 201.075 394.465C130.047 427.923 72.7202 482.063 37.8284 548.638L37.0218 548.272Z" stroke="#BC9C65" stroke-width="2" class="line line02" />
    <path d="M38.6757 546.801C74.8657 443.456 147.132 355.392 243.165 297.609C339.198 239.826 453.058 215.899 565.35 229.903C677.643 243.906 781.422 294.975 859.012 374.41C936.601 453.844 983.201 556.732 990.875 665.547L990.043 665.602C982.383 556.972 935.862 454.259 858.405 374.96C780.947 295.66 677.345 244.678 565.243 230.699C453.142 216.719 339.476 240.605 243.606 298.29C147.737 355.974 75.5936 443.888 39.4652 547.057L38.6757 546.801Z" stroke="#BC9C65" stroke-width="2" class="line line03" />
    <path d="M38.8413 546.057C75.9191 406.864 162.843 285.191 283.905 203.025C404.967 120.859 552.182 83.619 698.949 98.0347C845.716 112.45 982.353 177.571 1084.17 281.629C1185.99 385.687 1246.27 521.818 1254.12 665.424L1253.21 665.472C1245.36 522.079 1185.17 386.15 1083.51 282.247C981.84 178.344 845.406 113.32 698.857 98.9261C552.308 84.5318 405.312 121.716 284.43 203.76C163.547 285.804 76.7533 407.296 39.7307 546.282L38.8413 546.057Z" stroke="#BC9C65" stroke-width="2" class="line line04" />
    <path d="M38.7561 544.976C69.1372 382.533 168.788 236.231 317.591 135.603C466.395 34.9755 653.268 -12.4818 840.485 2.8115C1027.7 18.1048 1201.32 95.0097 1326.29 218.001C1451.25 340.992 1518.26 500.909 1513.79 665.468L1512.69 665.445C1517.15 501.131 1450.24 341.452 1325.46 218.643C1200.68 95.835 1027.32 19.0444 840.382 3.77381C653.444 -11.4968 466.849 35.89 318.266 136.368C169.684 236.846 70.1815 382.931 39.8457 545.132L38.7561 544.976Z" stroke="#BC9C65" stroke-width="2" class="line line05" />
</svg>