<svg width="40" height="40" viewBox="0 0 40 40" fill="none" xmlns="http://www.w3.org/2000/svg">
<path d="M16.7279 26.5919C16.1951 26.5919 16.2857 26.3907 16.1019 25.8834L14.5352 20.7272L26.5955 13.5723" fill="white" fill-opacity="0.3"/>
<path d="M16.7266 26.5912C17.1377 26.5912 17.3193 26.4031 17.5489 26.18L19.7416 24.0478L17.0064 22.3984" fill="white" fill-opacity="0.78"/>
<path d="M17.0061 22.3991L23.6338 27.2957C24.3902 27.713 24.9359 27.4969 25.1244 26.5936L27.8222 13.8805C28.0983 12.7731 27.4001 12.2707 26.6764 12.5992L10.8349 18.7076C9.75363 19.1414 9.76007 19.7447 10.6379 20.0134L14.7032 21.2824L24.1147 15.3447C24.559 15.0753 24.9669 15.22 24.6322 15.5171" fill="white"/>
</svg>
