<svg width="40" height="40" viewBox="0 0 40 40" fill="none" xmlns="http://www.w3.org/2000/svg">
<rect x="0.5" y="0.5" width="39" height="39" rx="19.5" stroke="white" stroke-opacity="0.1"/>
<path d="M25.7327 21.4224C25.4223 21.0304 25.5111 20.856 25.7327 20.5056C25.7367 20.5016 28.2991 16.9608 28.5631 15.76L28.5647 15.7592C28.6959 15.3216 28.5647 15 27.9303 15H25.8311C25.2967 15 25.0503 15.276 24.9183 15.5848C24.9183 15.5848 23.8495 18.1432 22.3375 19.8016C21.8495 20.2808 21.6239 20.4344 21.3575 20.4344C21.2263 20.4344 21.0223 20.2808 21.0223 19.8432V15.7592C21.0223 15.2344 20.8727 15 20.4303 15H17.1295C16.7943 15 16.5951 15.2448 16.5951 15.4728C16.5951 15.9704 17.3511 16.0848 17.4295 17.4848V20.5224C17.4295 21.188 17.3087 21.3104 17.0407 21.3104C16.3271 21.3104 14.5952 18.7416 13.5688 15.8016C13.3616 15.2312 13.1592 15.0008 12.6208 15.0008H10.5208C9.92158 15.0008 9.80078 15.2768 9.80078 15.5856C9.80078 16.1312 10.5144 18.844 13.1192 22.428C14.8552 24.8743 17.2999 26.1999 19.5239 26.1999C20.8607 26.1999 21.0239 25.9055 21.0239 25.3991C21.0239 23.0616 20.9031 22.8408 21.5727 22.8408C21.8831 22.8408 22.4175 22.9944 23.6655 24.1743C25.0919 25.5735 25.3263 26.1999 26.1247 26.1999H28.2239C28.8223 26.1999 29.1255 25.9055 28.9511 25.3247C28.5519 24.1031 25.8543 21.5904 25.7327 21.4224Z" fill="white"/>
</svg>
