<svg width="158" height="155" viewBox="0 0 158 155" fill="none" xmlns="http://www.w3.org/2000/svg">
<path d="M30.2254 126.045V101.844H24.529L20.9369 114.216L17.4538 101.844H11.6484V126.045H16.2201V111.749L20.1749 126.045H21.6988L25.7263 111.749V126.045H30.2254ZM44.5934 126.045V122.017H38.5703V115.74H44.3393V111.713H38.5703V105.871H44.5934V101.844H33.9987V126.045H44.5934ZM46.4439 126.48C50.3623 126.48 53.2288 124.956 53.8093 115.087L54.3897 105.871H56.8934V126.045H61.5012V101.844H50.1811L49.3102 114.906C48.8385 121.763 47.9678 122.416 46.4439 122.416V126.48ZM65.2747 101.844V126.045H71.8055C76.5223 126.045 78.6269 122.452 78.6269 118.389C78.6269 114.325 76.5223 110.733 71.8055 110.733H69.8463V101.844H65.2747ZM71.3341 114.761C73.0392 114.761 73.9827 116.212 73.9827 118.389C73.9827 120.602 73.0392 122.017 71.3341 122.017H69.8463V114.761H71.3341ZM95.063 126.045V101.844H90.4914V111.604H85.8471V101.844H81.2755V126.045H85.8471V115.595H90.4914V126.045H95.063ZM103.154 126.045L108.052 112.475V126.045H112.624V101.844H108.052L103.444 114.942V101.844H98.8363V126.045H103.154ZM127.5 130.507H132.072V122.017H130.185V101.844H125.613V122.017H120.969V101.844H116.397V126.045H127.5V130.507ZM147.891 126.045L142.811 101.844H137.55L132.507 126.045H137.224L137.949 121.582H142.448L143.174 126.045H147.891ZM141.94 117.554H138.457L140.199 106.96L141.94 117.554Z" fill="#422D1C"/>
<path d="M34.2091 141.933L36.2301 138.702L36.5003 139.114V141.933H37.7928V139.114L38.0629 138.702L40.0839 141.933H41.6231L38.8737 137.798L41.4351 134.097H39.9077L37.7928 137.375V134.097H36.5003V137.375L34.3853 134.097H32.8579L35.4195 137.798L32.6699 141.933H34.2091ZM43.7027 141.933L46.6165 136.693V141.933H47.909V134.097H46.5932L43.7615 139.196V134.097H42.4572V141.933H43.7027ZM48.943 142.074C50.2823 142.074 51.1989 141.569 51.4927 138.303L51.7628 135.236H53.5841V141.933H54.8883V134.097H50.5762L50.212 138.209C49.9886 140.594 49.6363 140.911 48.943 140.911V142.074ZM59.2238 142.074C61.2094 142.074 62.3608 140.324 62.3608 138.021C62.3608 135.718 61.2094 133.967 59.2238 133.967C57.238 133.967 56.0865 135.718 56.0865 138.021C56.0865 140.324 57.238 142.074 59.2238 142.074ZM59.2238 140.911C58.0487 140.911 57.4144 139.642 57.4144 138.021C57.4144 136.376 58.0487 135.119 59.2238 135.119C60.3869 135.119 61.0332 136.376 61.0332 138.021C61.0332 139.642 60.3869 140.911 59.2238 140.911ZM64.8163 141.933L67.7302 136.693V141.933H69.0227V134.097H67.7068L64.8751 139.196V134.097H63.5709V141.933H64.8163ZM68.0476 132.734L67.4953 132.287C67.2251 132.675 66.7904 132.91 66.2968 132.91C65.8035 132.91 65.3687 132.675 65.0983 132.287L64.5461 132.734C64.9573 133.274 65.5919 133.615 66.2968 133.615C67.0135 133.615 67.648 133.274 68.0476 132.734ZM78.4692 141.933L75.7199 137.798L78.2813 134.097H76.7538L74.3217 137.868V134.097H73.0175V141.933H74.3217V139.595L74.9093 138.702L76.93 141.933H78.4692ZM81.7121 142.074C83.6976 142.074 84.8491 140.324 84.8491 138.021C84.8491 135.718 83.6976 133.967 81.7121 133.967C79.7263 133.967 78.5748 135.718 78.5748 138.021C78.5748 140.324 79.7263 142.074 81.7121 142.074ZM81.7121 140.911C80.537 140.911 79.9027 139.642 79.9027 138.021C79.9027 136.376 80.537 135.119 81.7121 135.119C82.8752 135.119 83.5215 136.376 83.5215 138.021C83.5215 139.642 82.8752 140.911 81.7121 140.911ZM92.9444 141.933V134.097H91.1938L89.5018 138.867L87.8216 134.097H86.0592V141.933H87.3634V136.529L89.2434 141.933H89.7486L91.652 136.529V141.933H92.9444ZM99.9121 141.933V134.097H94.4367V141.933H95.7409V135.236H98.6077V141.933H99.9121ZM100.934 142.074C102.274 142.074 103.19 141.569 103.484 138.303L103.754 135.236H105.575V141.933H106.879V134.097H102.567L102.203 138.209C101.98 140.594 101.627 140.911 100.934 140.911V142.074ZM112.66 141.933V140.782H109.676V138.514H112.578V137.363H109.676V135.236H112.66V134.097H108.371V141.933H112.66ZM119.369 141.933L116.62 137.798L119.181 134.097H117.654L115.222 137.868V134.097H113.917V141.933H115.222V139.595L115.809 138.702L117.83 141.933H119.369ZM122.671 142.074C124.057 142.074 124.762 141.158 125.161 140.241L124.081 139.76C123.834 140.418 123.352 140.911 122.671 140.911C121.519 140.911 120.803 139.689 120.803 138.021C120.803 136.341 121.519 135.119 122.671 135.119C123.317 135.119 123.799 135.554 124.069 136.176L125.15 135.694C124.738 134.825 124.034 133.967 122.671 133.967C120.709 133.967 119.475 135.659 119.475 138.021C119.475 140.371 120.709 142.074 122.671 142.074Z" fill="#422D1C"/>
<path fill-rule="evenodd" clip-rule="evenodd" d="M106.379 30.9068L106.375 30.9095V93.7459H125.84V92.0998H106.379V30.9068ZM33.6914 18.0781L33.6955 18.0809V92.0998H53.1563V93.7459H33.6914V18.0781ZM56.0627 93.7459H76.8595L76.861 92.0998H56.0668L56.0454 75.3704L56.039 75.3767L56.0627 93.7459ZM76.8714 82.4928L92.6032 66.7542L92.6012 65.114L76.8727 80.8492L76.8714 82.4928ZM103.468 93.7459H82.6525L82.5585 83.1152L80.7318 81.1185L81.5205 80.3298L82.5626 81.4691L82.6567 92.0998H103.468V93.7459ZM67.0937 61.9434L67.1012 38.3603L67.1047 38.364L67.0979 60.2972L78.0207 49.3767L78.8383 50.2014L67.0937 61.9434Z" fill="url(#paint0_linear_2090_34709)"/>
<path fill-rule="evenodd" clip-rule="evenodd" d="M125.843 16.4316L106.379 29.2629V92.0993H125.843V16.4316ZM33.6953 16.4316L53.1602 29.2629V92.0993H33.6953V16.4316ZM56.0668 92.0993H76.8636L76.8726 80.8488L92.6071 65.1076L92.5718 36.8938L56.0431 73.73L56.0668 92.0993ZM103.472 92.0993H82.6565L82.5625 81.4685L80.7358 79.4717L94.3277 65.8806L94.297 64.5542L103.472 74.0835V92.0993ZM67.0976 60.2967L67.1051 36.7136L78.8422 48.5548L67.0976 60.2967Z" fill="url(#paint1_linear_2090_34709)"/>
<defs>
<linearGradient id="paint0_linear_2090_34709" x1="30.4858" y1="93.8448" x2="121.409" y2="23.8565" gradientUnits="userSpaceOnUse">
<stop stop-color="#D1B06B"/>
<stop offset="0.529412" stop-color="#F7E3BB"/>
<stop offset="0.741176" stop-color="#C0A062"/>
<stop offset="1" stop-color="#FEDA93"/>
</linearGradient>
<linearGradient id="paint1_linear_2090_34709" x1="30.4897" y1="92.1982" x2="121.413" y2="22.21" gradientUnits="userSpaceOnUse">
<stop stop-color="#D1B06B"/>
<stop offset="0.529412" stop-color="#F7E3BB"/>
<stop offset="0.741176" stop-color="#C0A062"/>
<stop offset="1" stop-color="#FEDA93"/>
</linearGradient>
</defs>
</svg>
