<svg width="206" height="68" viewBox="0 0 206 68" fill="none" xmlns="http://www.w3.org/2000/svg">
<path d="M103.38 53.8421V32.9278H98.4574L95.3532 43.6203L92.3432 32.9278H87.3262V53.8421H91.277V41.4879L94.6947 53.8421H96.0117L99.4922 41.4879V53.8421H103.38ZM115.797 53.8421V50.3617H110.592V44.937H115.578V41.4565H110.592V36.4082H115.797V32.9278H106.641V53.8421H115.797ZM117.396 54.2183C120.783 54.2183 123.26 52.9014 123.762 44.3726L124.263 36.4082H126.427V53.8421H130.409V32.9278H120.626L119.873 44.2158C119.466 50.1422 118.713 50.7066 117.396 50.7066V54.2183ZM133.67 32.9278V53.8421H139.314C143.39 53.8421 145.209 50.7378 145.209 47.226C145.209 43.7142 143.39 40.6099 139.314 40.6099H137.621V32.9277H133.67V32.9278ZM138.906 44.0905C140.38 44.0905 141.195 45.3447 141.195 47.2261C141.195 49.1389 140.38 50.3617 138.906 50.3617H137.621V44.0903H138.906V44.0905ZM159.413 53.8423V32.9279H155.462V41.3627H151.449V32.9279H147.498V53.8423H151.449V44.8117H155.462V53.8423H159.413ZM166.405 53.8423L170.638 42.1151V53.8423H174.589V32.9279H170.638L166.656 44.2473V32.9279H162.674V53.8423H166.405ZM187.445 57.6989H191.396V50.3618H189.765V32.9279H185.814V50.3618H181.801V32.9279H177.85V53.8423H187.445V57.6989ZM205.067 53.8423L200.677 32.9279H196.13L191.772 53.8423H195.848L196.475 49.9856H200.363L200.991 53.8423H205.067ZM199.924 46.5051H196.914L198.419 37.3491L199.925 46.5051H199.924Z" fill="#422D1C"/>
<path d="M88.6564 67.5727L90.4029 64.7804L90.6365 65.1357V67.5727H91.7533V65.1357L91.9868 64.7804L93.7333 67.5727H95.0636L92.6875 63.9986L94.9011 60.8H93.5811L91.7533 63.633V60.8H90.6365V63.633L88.8086 60.8H87.4887L89.7023 63.9986L87.3262 67.5727H88.6564ZM96.8607 67.5727L99.3789 63.0441V67.5727H100.496V60.7999H99.3586L96.9114 65.2067V60.7999H95.7843V67.5727H96.8607ZM101.389 67.6945C102.547 67.6945 103.339 67.258 103.593 64.435L103.826 61.7849H105.4V67.5727H106.527V60.7999H102.801L102.486 64.3539C102.293 66.4152 101.988 66.6892 101.389 66.6892V67.6945ZM110.274 67.6945C111.99 67.6945 112.985 66.1816 112.985 64.1914C112.985 62.2012 111.99 60.6883 110.274 60.6883C108.558 60.6883 107.563 62.2012 107.563 64.1914C107.563 66.1816 108.558 67.6945 110.274 67.6945ZM110.274 66.6892C109.259 66.6892 108.71 65.5927 108.71 64.1914C108.71 62.7697 109.259 61.6834 110.274 61.6834C111.279 61.6834 111.838 62.7697 111.838 64.1914C111.838 65.5926 111.279 66.6892 110.274 66.6892ZM115.107 67.5727L117.625 63.0441V67.5727H118.742V60.7999H117.605L115.158 65.2067V60.7999H114.031V67.5727H115.107ZM117.9 59.6222L117.422 59.2363C117.189 59.5715 116.813 59.7745 116.387 59.7745C115.96 59.7745 115.585 59.5715 115.351 59.2363L114.874 59.6222C115.229 60.0892 115.777 60.3837 116.387 60.3837C117.006 60.3837 117.554 60.0892 117.9 59.6222H117.9ZM126.906 67.5727L124.53 63.9986L126.743 60.8H125.424L123.322 64.0595V60.8H122.195V67.5728H123.322V65.5522L123.829 64.7805L125.576 67.5728H126.906V67.5727ZM129.709 67.6945C131.424 67.6945 132.42 66.1816 132.42 64.1914C132.42 62.2012 131.424 60.6883 129.709 60.6883C127.992 60.6883 126.997 62.2012 126.997 64.1914C126.997 66.1816 127.992 67.6945 129.709 67.6945ZM129.709 66.6892C128.693 66.6892 128.145 65.5927 128.145 64.1914C128.145 62.7697 128.693 61.6834 129.709 61.6834C130.714 61.6834 131.272 62.7697 131.272 64.1914C131.272 65.5926 130.714 66.6892 129.709 66.6892ZM139.416 67.5727V60.7999H137.903L136.44 64.9224L134.988 60.7999H133.465V67.5727H134.592V62.9019L136.217 67.5727H136.654L138.298 62.9019V67.5727H139.415H139.416ZM145.437 67.5727V60.7999H140.705V67.5727H141.832V61.7849H144.31V67.5727H145.437H145.437ZM146.32 67.6945C147.478 67.6945 148.27 67.258 148.524 64.435L148.757 61.7849H150.331V67.5727H151.458V60.7999H147.732L147.417 64.3539C147.224 66.4152 146.919 66.6892 146.32 66.6892V67.6945ZM156.454 67.5727V66.5776H153.875V64.6179H156.383V63.6228H153.875V61.7849H156.454V60.7999H152.748V67.5727H156.454ZM162.252 67.5727L159.876 63.9986L162.089 60.8H160.769L158.667 64.0595V60.8H157.54V67.5728H158.667V65.5522L159.175 64.7805L160.922 67.5728H162.252V67.5727ZM165.105 67.6945C166.303 67.6945 166.912 66.9025 167.258 66.1105L166.323 65.6942C166.11 66.2629 165.694 66.6892 165.105 66.6892C164.11 66.6892 163.491 65.6332 163.491 64.1914C163.491 62.7393 164.11 61.6834 165.105 61.6834C165.663 61.6834 166.08 62.059 166.313 62.5973L167.248 62.1809C166.892 61.4295 166.283 60.6883 165.105 60.6883C163.409 60.6883 162.343 62.1503 162.343 64.1914C162.343 66.2222 163.409 67.6945 165.105 67.6945Z" fill="#422D1C"/>
<path fill-rule="evenodd" clip-rule="evenodd" d="M63.7482 13.4695L63.7446 13.4719V67.7751H80.5663V66.3525H63.7482V13.4695ZM0.931641 2.38292L0.935266 2.38537V66.3524H17.7533V67.775H0.931641V2.38281V2.38292ZM20.265 67.7751H38.2377L38.2389 66.3525H20.2686L20.25 51.8949L20.2446 51.9005L20.265 67.7751ZM38.2479 58.0501L51.8434 44.4489L51.8417 43.0315L38.2491 56.6299L38.2479 58.0501ZM61.2328 67.7751H43.2438L43.1626 58.5882L41.5839 56.8625L42.2655 56.1809L43.1661 57.1655L43.2473 66.3525H61.2327V67.7751H61.2328ZM29.7979 40.2914L29.8045 19.9108L29.8075 19.914L29.8016 38.8688L39.2411 29.4313L39.9476 30.1439L29.7979 40.2914Z" fill="#422D1C"/>
<path fill-rule="evenodd" clip-rule="evenodd" d="M80.5701 0.960938L63.7485 12.0499V66.3532H80.5701V0.960938ZM0.935547 0.960938L17.7571 12.0499V66.3532H0.935547V0.960938ZM20.2689 66.3532H38.2416L38.2494 56.6304L51.8472 43.0268L51.8168 18.6445L20.2485 50.4784L20.2689 66.3532ZM61.2368 66.3532H43.2478L43.1665 57.166L41.5878 55.4405L53.334 43.6948L53.3076 42.5488L61.2368 50.784V66.3533V66.3532ZM29.8017 38.8692L29.8083 18.4887L39.9514 28.7218L29.8017 38.8691V38.8692Z" fill="url(#paint0_linear_8003_264)"/>
<path fill-rule="evenodd" clip-rule="evenodd" d="M80.3711 67.776V0.476562H80.5699V67.776H80.3711Z" fill="#C5C6C6"/>
<defs>
<linearGradient id="paint0_linear_8003_264" x1="-1.83479" y1="66.4386" x2="76.7408" y2="5.95492" gradientUnits="userSpaceOnUse">
<stop stop-color="#D1B06B"/>
<stop offset="0.529412" stop-color="#F7E3BB"/>
<stop offset="0.741176" stop-color="#C0A062"/>
<stop offset="1" stop-color="#FEDA93"/>
</linearGradient>
</defs>
</svg>
