<svg width="1640" height="345" viewBox="0 0 1640 345" fill="none" xmlns="http://www.w3.org/2000/svg">
<path opacity="0.03" d="M223.617 291.285V0.00148653H155.046L111.808 148.921L69.8817 0.00148653H0V291.285H55.0309V119.222L102.636 291.285H120.98L169.459 119.222V291.285H223.617ZM396.569 291.285V242.81H324.069V167.258H393.511V118.784H324.069V48.4744H396.569V0.00148653H269.038V291.285H396.569ZM418.846 296.524C466.013 296.524 500.519 278.182 507.505 159.398L514.494 48.4744H544.63V291.285H600.096V0.00148653H463.831L453.348 157.215C447.668 239.754 437.189 247.615 418.846 247.615V296.524ZM645.518 0.00148653V291.285H724.133C780.91 291.285 806.245 248.05 806.245 199.139C806.245 150.228 780.91 106.992 724.133 106.992H700.549V0H645.518V0.00148653ZM718.458 155.468C738.983 155.468 750.34 172.937 750.34 199.14C750.34 225.781 738.982 242.81 718.458 242.81H700.549V155.467H718.458V155.468ZM1004.09 291.286V0.00297306H949.061V117.477H893.157V0.00297306H838.126V291.286H893.157V165.513H949.061V291.286H1004.09ZM1101.49 291.286L1160.45 127.957V291.286H1215.48V0.00297306H1160.45L1104.98 157.653V0.00297306H1049.51V291.286H1101.49ZM1394.55 345H1449.58V242.812H1426.86V0.00297306H1371.83V242.812H1315.93V0.00297306H1260.9V291.286H1394.55V345ZM1640 291.286L1578.86 0.00297306H1515.53L1454.82 291.286H1511.59L1520.33 237.572H1574.49L1583.22 291.286H1640ZM1568.37 189.098H1526.45L1547.41 61.5788L1568.37 189.098H1568.37Z" fill="#422D1C"/>
</svg>
